<svg width="61" height="56" viewBox="0 0 61 56" fill="none" xmlns="http://www.w3.org/2000/svg">
<path class="edge" d="M59.1577 -6V39L30.5788 54L2 39L2 -6" stroke="currentColor" stroke-width="3"/>
<path class="letter" d="M37.952 30.672C38.272 30.976 38.432 31.32 38.432 31.704C38.432 32.072 38.288 32.4 38 32.688C37.728 32.96 37.4 33.096 37.016 33.096C36.616 33.096 36.248 32.928 35.912 32.592L27.92 25.104V31.584C27.92 32.048 27.776 32.424 27.488 32.712C27.216 33 26.84 33.144 26.36 33.144C25.896 33.144 25.52 33 25.232 32.712C24.96 32.424 24.824 32.048 24.824 31.584V17.496C24.824 17.032 24.96 16.664 25.232 16.392C25.52 16.104 25.896 15.96 26.36 15.96C26.84 15.96 27.216 16.104 27.488 16.392C27.776 16.664 27.92 17.032 27.92 17.496V23.664L35.648 16.416C35.936 16.128 36.264 15.984 36.632 15.984C37 15.984 37.32 16.128 37.592 16.416C37.88 16.688 38.024 17.008 38.024 17.376C38.024 17.744 37.864 18.08 37.544 18.384L31.088 24.288L37.952 30.672Z" fill="currentColor"/>
</svg>
