<svg width="61" height="61" viewBox="0 0 61 61" fill="none" xmlns="http://www.w3.org/2000/svg">
<path d="M59.1577 -1V44L30.5788 59L2 44L2 -1" stroke="#086972" stroke-width="3"/>
<path d="M37.952 35.672C38.272 35.976 38.432 36.32 38.432 36.704C38.432 37.072 38.288 37.4 38 37.688C37.728 37.96 37.4 38.096 37.016 38.096C36.616 38.096 36.248 37.928 35.912 37.592L27.92 30.104V36.584C27.92 37.048 27.776 37.424 27.488 37.712C27.216 38 26.84 38.144 26.36 38.144C25.896 38.144 25.52 38 25.232 37.712C24.96 37.424 24.824 37.048 24.824 36.584V22.496C24.824 22.032 24.96 21.664 25.232 21.392C25.52 21.104 25.896 20.96 26.36 20.96C26.84 20.96 27.216 21.104 27.488 21.392C27.776 21.664 27.92 22.032 27.92 22.496V28.664L35.648 21.416C35.936 21.128 36.264 20.984 36.632 20.984C37 20.984 37.32 21.128 37.592 21.416C37.88 21.688 38.024 22.008 38.024 22.376C38.024 22.744 37.864 23.08 37.544 23.384L31.088 29.288L37.952 35.672Z" fill="#17B978"/>
</svg>
