<svg xmlns="http://www.w3.org/2000/svg" id="Firefox" width="16" height="16" fill="none"><path stroke="#E66000" stroke-linecap="round" d="M1.697 4.769A7.063 7.063 0 1 0 11.759 2.1c-1.284-.8-2.404-.8-3.807-.8H6.66"/><path stroke="#E66000" stroke-linecap="round" d="M2.392 6.075c-1.378-1.231-.632-4.222.086-4.842.067.704.459.948.872 1.323.69-.216 1.03-.222 1.465 0C5.458 1.842 6.144.708 6.877.913c-.85 1.366-.055 2.93 1.076 3.275-.134.765-1.165 1.501-2.166 2.108-1.017.736-.567 1.451 0 1.753.745.397 2.834-.785 3.566.278-1.332.08-1.205 2.438-3.125 2.14 1.98.75 3.41.362 4.283-.267 1.542-1.193 2.26-2.78 2.26-4.361-.012-1.097.151-2.115-.99-3.727"/></svg>
