<svg id="NoBrowerData" xmlns="http://www.w3.org/2000/svg" width="17" height="21" fill="none"><path fill="currentColor" d="M7.182 12.278H5.987c.004-.408.04-.741.11-1 .072-.264.19-.504.352-.72.163-.218.38-.464.65-.74.196-.2.376-.387.539-.561.167-.179.302-.37.404-.574a1.67 1.67 0 0 0 .154-.746c0-.293-.053-.546-.16-.759a1.095 1.095 0 0 0-.463-.49c-.2-.115-.451-.173-.751-.173-.248 0-.484.045-.706.134-.223.09-.403.228-.54.415-.137.182-.208.422-.212.72H4.176c.008-.48.128-.893.36-1.237.235-.344.552-.608.95-.79a3.166 3.166 0 0 1 1.336-.274c.544 0 1.006.097 1.387.293.386.195.679.476.88.841.201.362.302.79.302 1.288 0 .383-.08.735-.238 1.058a4.059 4.059 0 0 1-.597.9c-.244.28-.503.548-.777.803a1.624 1.624 0 0 0-.475.733 3.057 3.057 0 0 0-.122.88ZM5.936 14.3c0-.191.06-.352.18-.484s.293-.198.52-.198c.231 0 .407.066.526.198.12.132.18.293.18.484 0 .183-.06.34-.18.472-.12.132-.295.198-.526.198-.227 0-.4-.066-.52-.198a.677.677 0 0 1-.18-.472Z"/><path fill="currentColor" d="M1.253 3.31a8.843 8.843 0 0 1 5.47-1.882c4.882 0 8.838 3.927 8.838 8.772 0 4.845-3.956 8.772-8.837 8.772a8.842 8.842 0 0 1-5.47-1.882c-.237.335-.49.657-.758.966a10.074 10.074 0 0 0 6.228 2.14c5.562 0 10.07-4.475 10.07-9.996 0-5.52-4.508-9.996-10.07-9.996-2.352 0-4.514.8-6.228 2.14.268.309.521.631.757.966Z"/></svg>
