<svg xmlns="http://www.w3.org/2000/svg" viewBox="0 0 27 19" fill="none"><path d="M7.364 0H4.909v2.375h2.455V0ZM22.09 0h-2.454v2.375h2.455V0Zm-9.817 19v-2.375h-4.91V19h4.91Zm2.454-2.375V19h4.91v-2.375h-4.91ZM24.546 9.5V7.125H22.09V4.75h-2.455V2.375h-2.454V4.75H9.818V2.375H7.364V4.75H4.909v2.375H2.455V9.5H0v7.125h2.455v-4.75h2.454v4.75h2.455V14.25h12.272v2.375h2.455v-4.75h2.454v4.75H27V9.5h-2.454Zm-4.91-2.375V9.5h-2.454V7.125h2.454Zm-9.818 0V9.5H7.364V7.125h2.454Z" style="fill:#c52b9b"/><style>@media (prefers-color-scheme:dark){path{fill:#d34faf}}</style></svg>
