<svg xmlns="http://www.w3.org/2000/svg" id="Github" width="19" height="18" fill="none"><path fill="currentColor" d="M6.325 0H5.2v1.125h1.125V0ZM7.45 0H6.325v1.125H7.45V0ZM8.575 0H7.45v1.125h1.125V0ZM9.7 0H8.575v1.125H9.7V0ZM10.825 0H9.7v1.125h1.125V0ZM11.95 0h-1.125v1.125h1.125V0ZM13.075 0H11.95v1.125h1.125V0ZM14.2 0h-1.125v1.125H14.2V0ZM5.2 1.125H4.075V2.25H5.2V1.125ZM6.325 1.125H5.2V2.25h1.125V1.125ZM7.45 1.125H6.325V2.25H7.45V1.125ZM8.575 1.125H7.45V2.25h1.125V1.125ZM9.7 1.125H8.575V2.25H9.7V1.125ZM10.825 1.125H9.7V2.25h1.125V1.125ZM11.95 1.125h-1.125V2.25h1.125V1.125ZM13.075 1.125H11.95V2.25h1.125V1.125ZM14.2 1.125h-1.125V2.25H14.2V1.125ZM15.325 1.125H14.2V2.25h1.125V1.125ZM4.075 2.25H2.95v1.125h1.125V2.25ZM5.2 2.25H4.075v1.125H5.2V2.25ZM6.325 2.25H5.2v1.125h1.125V2.25ZM7.45 2.25H6.325v1.125H7.45V2.25ZM8.575 2.25H7.45v1.125h1.125V2.25ZM9.7 2.25H8.575v1.125H9.7V2.25ZM10.825 2.25H9.7v1.125h1.125V2.25ZM11.95 2.25h-1.125v1.125h1.125V2.25ZM13.075 2.25H11.95v1.125h1.125V2.25ZM14.2 2.25h-1.125v1.125H14.2V2.25ZM15.325 2.25H14.2v1.125h1.125V2.25ZM16.45 2.25h-1.125v1.125h1.125V2.25ZM2.95 3.375H1.825V4.5H2.95V3.375ZM4.075 3.375H2.95V4.5h1.125V3.375ZM5.2 3.375H4.075V4.5H5.2V3.375ZM7.45 3.375H6.325V4.5H7.45V3.375ZM8.575 3.375H7.45V4.5h1.125V3.375ZM9.7 3.375H8.575V4.5H9.7V3.375ZM10.825 3.375H9.7V4.5h1.125V3.375ZM11.95 3.375h-1.125V4.5h1.125V3.375ZM13.075 3.375H11.95V4.5h1.125V3.375ZM15.325 3.375H14.2V4.5h1.125V3.375ZM16.45 3.375h-1.125V4.5h1.125V3.375ZM17.575 3.375H16.45V4.5h1.125V3.375ZM2.95 4.5H1.825v1.125H2.95V4.5ZM4.075 4.5H2.95v1.125h1.125V4.5ZM5.2 4.5H4.075v1.125H5.2V4.5ZM15.325 4.5H14.2v1.125h1.125V4.5ZM16.45 4.5h-1.125v1.125h1.125V4.5ZM17.575 4.5H16.45v1.125h1.125V4.5ZM2.95 5.625H1.825V6.75H2.95V5.625ZM4.075 5.625H2.95V6.75h1.125V5.625ZM5.2 5.625H4.075V6.75H5.2V5.625ZM15.325 5.625H14.2V6.75h1.125V5.625ZM16.45 5.625h-1.125V6.75h1.125V5.625ZM17.575 5.625H16.45V6.75h1.125V5.625ZM1.825 6.75H.7v1.125h1.125V6.75ZM2.95 6.75H1.825v1.125H2.95V6.75ZM4.075 6.75H2.95v1.125h1.125V6.75ZM16.45 6.75h-1.125v1.125h1.125V6.75ZM17.575 6.75H16.45v1.125h1.125V6.75ZM18.7 6.75h-1.125v1.125H18.7V6.75ZM1.825 7.875H.7V9h1.125V7.875ZM2.95 7.875H1.825V9H2.95V7.875ZM4.075 7.875H2.95V9h1.125V7.875ZM16.45 7.875h-1.125V9h1.125V7.875ZM17.575 7.875H16.45V9h1.125V7.875ZM18.7 7.875h-1.125V9H18.7V7.875ZM1.825 9H.7v1.125h1.125V9ZM2.95 9H1.825v1.125H2.95V9ZM4.075 9H2.95v1.125h1.125V9ZM16.45 9h-1.125v1.125h1.125V9ZM17.575 9H16.45v1.125h1.125V9ZM18.7 9h-1.125v1.125H18.7V9ZM1.825 10.125H.7v1.125h1.125v-1.125ZM2.95 10.125H1.825v1.125H2.95v-1.125ZM4.075 10.125H2.95v1.125h1.125v-1.125ZM16.45 10.125h-1.125v1.125h1.125v-1.125ZM17.575 10.125H16.45v1.125h1.125v-1.125ZM18.7 10.125h-1.125v1.125H18.7v-1.125ZM1.825 11.25H.7v1.125h1.125V11.25ZM2.95 11.25H1.825v1.125H2.95V11.25ZM4.075 11.25H2.95v1.125h1.125V11.25ZM5.2 11.25H4.075v1.125H5.2V11.25ZM15.325 11.25H14.2v1.125h1.125V11.25ZM16.45 11.25h-1.125v1.125h1.125V11.25ZM17.575 11.25H16.45v1.125h1.125V11.25ZM18.7 11.25h-1.125v1.125H18.7V11.25ZM2.95 12.375H1.825V13.5H2.95v-1.125ZM4.075 12.375H2.95V13.5h1.125v-1.125ZM5.2 12.375H4.075V13.5H5.2v-1.125ZM6.325 12.375H5.2V13.5h1.125v-1.125ZM14.2 12.375h-1.125V13.5H14.2v-1.125ZM15.325 12.375H14.2V13.5h1.125v-1.125ZM16.45 12.375h-1.125V13.5h1.125v-1.125ZM17.575 12.375H16.45V13.5h1.125v-1.125ZM2.95 13.5H1.825v1.125H2.95V13.5ZM4.075 13.5H2.95v1.125h1.125V13.5ZM6.325 13.5H5.2v1.125h1.125V13.5ZM7.45 13.5H6.325v1.125H7.45V13.5ZM8.575 13.5H7.45v1.125h1.125V13.5ZM11.95 13.5h-1.125v1.125h1.125V13.5ZM13.075 13.5H11.95v1.125h1.125V13.5ZM14.2 13.5h-1.125v1.125H14.2V13.5ZM15.325 13.5H14.2v1.125h1.125V13.5ZM16.45 13.5h-1.125v1.125h1.125V13.5ZM17.575 13.5H16.45v1.125h1.125V13.5ZM4.075 14.625H2.95v1.125h1.125v-1.125ZM5.2 14.625H4.075v1.125H5.2v-1.125ZM13.075 14.625H11.95v1.125h1.125v-1.125ZM14.2 14.625h-1.125v1.125H14.2v-1.125ZM15.325 14.625H14.2v1.125h1.125v-1.125ZM16.45 14.625h-1.125v1.125h1.125v-1.125ZM5.2 15.75H4.075v1.125H5.2V15.75ZM6.325 15.75H5.2v1.125h1.125V15.75ZM7.45 15.75H6.325v1.125H7.45V15.75ZM8.575 15.75H7.45v1.125h1.125V15.75ZM13.075 15.75H11.95v1.125h1.125V15.75ZM14.2 15.75h-1.125v1.125H14.2V15.75ZM15.325 15.75H14.2v1.125h1.125V15.75ZM6.325 16.875H5.2V18h1.125v-1.125ZM7.45 16.875H6.325V18H7.45v-1.125ZM8.575 16.875H7.45V18h1.125v-1.125ZM13.075 16.875H11.95V18h1.125v-1.125ZM14.2 16.875h-1.125V18H14.2v-1.125Z"/></svg>
