<svg xmlns="http://www.w3.org/2000/svg" id="Me" width="51" height="68" fill="none"><path fill="#D39581" d="M2 16h47v40H2z"/><path fill="#D9D9D9" d="M16 26h10v10H16z"/><path id="orange-circle" fill="#03451D" d="M21 31h5v5h-5z"/><path fill="#D9D9D9" d="M36 26h10v10H36z"/><path id="eye" fill="#03451D" d="M41 31h5v5h-5z"/><path fill="#D39581" d="M7 4h42v22H7z"/><path fill="#362923" d="M10 2v5h36V2H10Z"/><path fill="#362923" d="M7 4v5h5V4H7ZM44 4v5h5V4h-5Z"/><path fill="#362923" d="M4 7v5h5V7H4ZM2 12v5h5v-5H2Z"/><path fill="#362923" d="M2 38h5V15H2v23Z"/><path fill="#B75A17" fill-opacity=".8" d="M33 34h-2v2h2v-2ZM32 32h-2v2h2v-2ZM34 36h-2v2h2v-2ZM34 38h-5v2h5v-2Z"/><path fill="#B75A17" fill-opacity=".4" d="M30 21h-2v5h2v-5ZM33 21h-2v5h2v-5Z"/><path fill="#D39581" d="M8 26H2v12h2.5v-3H8v-9Z"/><path fill="#000" d="M34 50h-9v2h9v-2ZM25 49h-2v2h2v-2Z"/><path fill="#362923" d="M26 26v-5H11v5h15ZM16 26h-5v2h5v-2ZM49 21v-5H39v5h10ZM39 21h-5v5h5v-5Z"/><path fill="#B75A17" fill-opacity=".4" d="M13 47H9v6h4v-6ZM49 47h-4v6h4v-6Z"/><path fill="#231B17" d="M43 66v-5H13v5h30Z"/><path fill="#231B17" d="M15 62v-5h-5v5h5Z"/><path fill="#231B17" d="M49 61v-5H5v5h44Z"/><path fill="#231B17" d="M46 64v-5h-5v5h5ZM4.5 33H2v23h5V36.286H4.5V33Z"/><path fill="#231B17" d="M46 62v-5H5v5h41Z"/><path fill="#231B17" d="M7 59V47H2v12h5Z"/><path fill="#D39581" d="M38 55H18v6h20v-6Z"/><path fill="#231B17" d="M28 59h3v-1h1v-1h1v-1h1v-2h-9v2h1v1h1v1h1v1ZM21 47h17v-4H21v4Z"/><path fill="#231B17" d="M25 45h10v-4H25v4ZM17 49h4v-4h-4v4Z"/><path fill="#231B17" d="M17 52h2v-4h-2v4ZM38 49h4v-4h-4v4Z"/><path fill="#231B17" d="M40 52h2v-4h-2v4Z"/><path fill="#D39581" d="M35 45H25v3h10v-3Z"/><path fill="currentColor" d="M13 62H5v2h8v-2ZM43 66H13v2h30v-2ZM46 64h-3v2h3v-2ZM49 61h-3v3h3v-3ZM46 0H10v2h36V0ZM10 2H7v2h3V2ZM7 4H4v3h3V4ZM5 59H2v3h3v-3ZM2 12H0v47h2V12ZM51 4h-2v57h2V4ZM4 7H2v5h2V7ZM49 2h-3v2h3V2Z"/><path fill="currentColor" d="M13 62h-2v4h2v-4Z"/></svg>
