<svg id="Quote" xmlns="http://www.w3.org/2000/svg" width="28" height="17" fill="none"><g fill="currentColor" clip-path="url(#a)"><path d="M16.802 8v9h11V8h-11Z"/><path d="M22.802 8.375v-4h-6v4h6ZM18.802 4.375h6v-2h-6v2ZM21.802 2.375h6v-2h-6v2Z"/></g><g fill="currentColor" clip-path="url(#b)"><path d="M.205 8v9h11V8h-11Z"/><path d="M6.205 8.375v-4h-6v4h6ZM2.205 4.375h6v-2h-6v2ZM5.205 2.375h6v-2h-6v2Z"/></g><defs><clipPath id="a"><path fill="#fff" d="M28.007 17h-11.41V.375h11.41z"/></clipPath><clipPath id="b"><path fill="#fff" d="M11.41 17H0V.375h11.41z"/></clipPath></defs></svg>
